<?xml version="1.0" encoding="utf-8"?>
<!-- Generator: Adobe Illustrator 22.0.1, SVG Export Plug-In . SVG Version: 6.00 Build 0)  -->
<svg version="1.1" id="Layer_1" xmlns="http://www.w3.org/2000/svg" xmlns:xlink="http://www.w3.org/1999/xlink" x="0px" y="0px"
	 viewBox="0 0 32 32" style="enable-background:new 0 0 32 32;" xml:space="preserve">
<style type="text/css">
	.st0{fill:#FFFFFF;}
	.st1{fill:none;stroke:#FFFFFF;stroke-width:2.5;stroke-linecap:round;stroke-miterlimit:10;}
</style>
<g>
	<g>
		<path class="st0" d="M16,11.59575c2.42852,0,4.40426,1.97574,4.40426,4.40425c0,2.42852-1.97574,4.40426-4.40426,4.40426
			c-2.42851,0-4.40425-1.97574-4.40425-4.40426C11.59575,13.57149,13.57149,11.59575,16,11.59575 M16,8.59575
			c-4.0886,0-7.40425,3.31565-7.40425,7.40425c0,4.08859,3.31565,7.40426,7.40425,7.40426
			c4.08859,0,7.40426-3.31567,7.40426-7.40426C23.40426,11.9114,20.08859,8.59575,16,8.59575L16,8.59575z"/>
	</g>
	<g>
		<line class="st1" x1="9.07996" y1="9.24473" x2="7.43234" y2="7.5971"/>
	</g>
	<g>
		<line class="st1" x1="6.3301" y1="16.1165" x2="4" y2="16.1165"/>
	</g>
	<g>
		<line class="st1" x1="9.24473" y1="22.92003" x2="7.5971" y2="24.56766"/>
	</g>
	<g>
		<line class="st1" x1="16.1165" y1="25.6699" x2="16.1165" y2="28"/>
	</g>
	<g>
		<line class="st1" x1="22.92003" y1="22.75527" x2="24.56766" y2="24.4029"/>
	</g>
	<g>
		<line class="st1" x1="25.6699" y1="15.8835" x2="28" y2="15.8835"/>
	</g>
	<g>
		<line class="st1" x1="22.75527" y1="9.07996" x2="24.4029" y2="7.43234"/>
	</g>
	<g>
		<line class="st1" x1="15.8835" y1="6.3301" x2="15.8835" y2="4"/>
	</g>
</g>
</svg>
